<svg xmlns:xlink="http://www.w3.org/1999/xlink" class="footer-social-item--icon" preserveAspectRatio="xMidYMid slice" viewBox="0 0 16 16" xmlns="http://www.w3.org/2000/svg" width="22"  height="22" ><g fill="none" fill-rule="evenodd"><path d="M0 0h16v16H0z" fill="none"></path><path d="M16 3.538c-.589.26-1.22.438-1.885.517a3.296 3.296 0 0 0 1.443-1.815 6.617 6.617 0 0 1-2.086.797A3.282 3.282 0 0 0 7.88 6.029 9.318 9.318 0 0 1 1.115 2.6 3.257 3.257 0 0 0 .67 4.25a3.28 3.28 0 0 0 1.46 2.732A3.283 3.283 0 0 1 .644 6.57v.041A3.286 3.286 0 0 0 3.276 9.83a3.325 3.325 0 0 1-.864.115 3.15 3.15 0 0 1-.618-.061 3.284 3.284 0 0 0 3.065 2.28 6.585 6.585 0 0 1-4.076 1.402c-.265 0-.526-.016-.783-.045a9.278 9.278 0 0 0 5.031 1.477c6.038 0 9.338-5.001 9.338-9.339l-.01-.425A6.554 6.554 0 0 0 16 3.538z" fill="#FFFFFF" fill-rule="nonzero"></path></g></svg>